Coordinates
version=1
nRows=13
nColumns=40
inDegrees=yes

Units are S.I. units (second, meters, Newtons, ...)
Angles are in degrees.

endheader
time	pelvis_tilt	pelvis_list	pelvis_rotation	pelvis_tx	pelvis_ty	pelvis_tz	hip_flexion_r	hip_adduction_r	hip_rotation_r	knee_angle_r	knee_angle_r_beta	ankle_angle_r	subtalar_angle_r	mtp_angle_r	hip_flexion_l	hip_adduction_l	hip_rotation_l	knee_angle_l	knee_angle_l_beta	ankle_angle_l	subtalar_angle_l	mtp_angle_l	lumbar_extension	lumbar_bending	lumbar_rotation	arm_flex_r	arm_add_r	arm_rot_r	elbow_flex_r	pro_sup_r	wrist_flex_r	wrist_dev_r	arm_flex_l	arm_add_l	arm_rot_l	elbow_flex_l	pro_sup_l	wrist_flex_l	wrist_dev_l
     28.68750000	     -2.48123067	     -3.27607371	      0.96882457	      0.85432162	      0.93810060	      0.44920942	     31.87158129	     -5.99156383	     -7.72337397	     63.45031285	     63.45031285	      0.64181018	    -16.47466183	      1.40152424	      7.86835473	     -1.96234099	     -9.12343884	     15.94525895	     15.94525895	     13.78088302	     -5.68392818	     -0.11876545	     -8.30434056	      5.16960075	      2.88536914	     -3.53154121	    -11.12713364	     -3.72428596	     21.34571112	     46.39589328	      0.00000000	      0.00000000	     20.46827185	    -12.64200076	     -4.08324214	     45.29941237	     46.68041271	      0.00000000	      0.00000000
     28.69957143	     -2.45215053	     -3.33457653	      0.92213783	      0.85359658	      0.93838731	      0.44890635	     32.15762340	     -5.90297958	     -8.11618670	     61.03040658	     61.03040658	      0.98476828	    -16.71121326	      1.83570702	      6.88276512	     -1.96164012	     -9.34574957	     15.04020792	     15.04020792	     13.94996516	     -5.05156132	     -0.26202487	     -8.43159022	      5.29696595	      2.90238550	     -5.29242068	    -11.04959106	     -3.65800451	     20.93843387	     46.39447922	      0.00000000	      0.00000000	     21.40761942	    -12.76882193	     -4.30697431	     46.85629562	     46.72448142	      0.00000000	      0.00000000
     28.71164286	     -2.41086963	     -3.25786726	      0.82416609	      0.85282560	      0.93836742	      0.44880483	     32.36889907	     -5.90839755	     -8.38706112	     58.42936840	     58.42936840	      1.40330610	    -16.83752761	      2.38683115	      5.93923301	     -1.85557301	     -9.77588626	     14.24783510	     14.24783510	     14.03932833	     -4.27821333	     -0.92915947	     -8.65784770	      5.19209416	      2.97560942	     -7.28011281	    -11.00745958	     -3.64970120	     21.36004923	     46.36653435	      0.00000000	      0.00000000	     21.92013829	    -13.03504076	     -4.72453157	     49.83687418	     46.79563093	      0.00000000	      0.00000000
     28.72371429	     -2.46751073	     -3.33191588	      0.78807412	      0.85196949	      0.93815994	      0.44870774	     32.46712994	     -5.75605920	     -8.79456598	     55.40587855	     55.40587855	      1.73472313	    -16.96325527	      2.82639700	      5.21374281	     -1.88729782	     -9.88554318	     13.62992537	     13.62992537	     14.21662209	     -3.90834938	     -1.23709195	     -8.67782521	      5.36641305	      2.72807425	     -8.82058172	    -11.02576182	     -3.67229668	     21.34159839	     46.35953598	      0.00000000	      0.00000000	     22.60936594	    -13.35675126	     -4.97512757	     51.32886343	     46.83977795	      0.00000000	      0.00000000
     28.73578571	     -2.63774726	     -3.29817222	      0.74889383	      0.85098494	      0.93748276	      0.44879255	     32.62954664	     -5.71582442	     -9.23341119	     52.26380620	     52.26380620	      2.15344053	    -16.92690938	      3.15664164	      4.68150673	     -1.81978804	    -10.03031354	     13.12964139	     13.12964139	     14.43411663	     -3.59933813	     -1.53610948	     -8.65038225	      5.29964321	      2.49423655	    -10.27604911	    -10.96678422	     -3.72218166	     21.25573436	     46.35627299	      0.00000000	      0.00000000	     23.36235162	    -13.70801392	     -5.21131696	     52.61043238	     46.88135226	      0.00000000	      0.00000000
     28.74785714	     -2.69789568	     -3.27391584	      0.63221974	      0.85022395	      0.93688826	      0.44898058	     32.46596806	     -5.54269301	     -9.57065307	     48.75695325	     48.75695325	      2.50832355	    -16.76794677	      3.44590981	      3.96065108	     -1.76178228	    -10.23894500	     12.55722001	     12.55722001	     14.65978365	     -3.19513187	     -1.94453565	     -8.69354898	      5.30035809	      2.47064260	    -11.73745746	    -10.97256795	     -3.83359778	     21.32741739	     46.35199862	      0.00000000	      0.00000000	     24.00830841	    -13.91546308	     -5.46516712	     54.26872229	     46.92832716	      0.00000000	      0.00000000
     28.75992857	     -2.75630113	     -3.16999965	      0.46233731	      0.84952855	      0.93605003	      0.44942411	     32.18341190	     -5.36897547	     -9.84768927	     45.07194626	     45.07194626	      2.66716377	    -16.48872840	      2.87380999	      3.18633540	     -1.65675312	    -10.77463034	     11.87865460	     11.87865460	     14.58565300	     -2.45265007	     -3.24914617	     -8.90786708	      5.13784038	      2.38875112	    -13.49522273	    -11.00215470	     -4.36600902	     22.82219705	     46.32893403	      0.00000000	      0.00000000	     23.76409595	    -14.29565383	     -6.04358827	     58.13443212	     47.02569967	      0.00000000	      0.00000000
     28.77200000	     -2.99332725	     -3.15229601	      0.33798188	      0.84875673	      0.93491605	      0.44998589	     31.93409805	     -5.07436396	    -10.24003502	     41.20723086	     41.20723086	      3.00518739	    -15.78935290	      3.18561911	      2.80344684	     -1.63141966	    -10.83593152	     11.57626900	     11.57626900	     14.89788528	     -2.38196436	     -3.50621568	     -8.74597178	      5.10234274	      2.19799682	    -14.46743153	    -10.95507386	     -4.42303570	     22.67096512	     46.33321058	      0.00000000	      0.00000000	     24.41798970	    -14.65988584	     -6.22951481	     58.87873969	     47.05571520	      0.00000000	      0.00000000
     28.78407143	     -3.01466178	     -3.10508484	      0.17851787	      0.84833506	      0.93397802	      0.45059258	     31.26386275	     -4.72894717	    -10.63116461	     37.18106210	     37.18106210	      3.27511456	    -14.79458155	      3.37647979	      2.09270541	     -1.57255073	    -11.05993416	     11.15809824	     11.15809824	     15.17087982	     -2.10528972	     -3.87710244	     -8.82609839	      5.06297574	      2.25385683	    -15.49877070	    -11.02654505	     -4.55840558	     22.62025541	     46.34054088	      0.00000000	      0.00000000	     24.89379924	    -14.74044785	     -6.41168709	     60.12431819	     47.09153393	      0.00000000	      0.00000000
     28.79614286	     -2.95498607	     -2.96206656	     -0.04340096	      0.84814704	      0.93293331	      0.45139397	     30.41360959	     -4.43931504	    -11.04299990	     33.21725618	     33.21725618	      3.42179261	    -13.33769349	      3.18669284	      1.24098182	     -1.43164747	    -11.52392535	     10.66756897	     10.66756897	     15.38568535	     -1.54936214	     -4.54939390	     -9.05170033	      4.90210944	      2.39197226	    -16.47826295	    -11.02022723	     -4.89447922	     22.95724163	     46.35177220	      0.00000000	      0.00000000	     25.06886160	    -14.86807618	     -6.73023337	     62.22725112	     47.15035067	      0.00000000	      0.00000000
     28.80821429	     -3.08158403	     -2.89933641	     -0.20276851	      0.84800551	      0.93155133	      0.45231914	     29.67951128	     -4.03063039	    -11.53221617	     29.36847944	     29.36847944	      3.44922790	    -11.75338767	      3.47521989	      0.71921519	     -1.38874933	    -11.72012394	     10.42679385	     10.42679385	     15.70811622	     -1.33969968	     -4.97935475	     -8.98155437	      4.81228644	      2.35213266	    -17.18176566	    -11.06292959	     -5.10886542	     23.05162820	     46.36313740	      0.00000000	      0.00000000	     25.22308781	    -15.02731204	     -6.92114692	     63.41427590	     47.18506389	      0.00000000	      0.00000000
     28.82028571	     -3.07870547	     -2.71987612	     -0.41142437	      0.84819593	      0.93010449	      0.45335331	     28.82816869	     -3.78418560	    -12.19357327	     25.94763740	     25.94763740	      3.46164940	     -9.59226177	      3.48780992	      0.00739207	     -1.24408187	    -12.22812886	     10.13701242	     10.13701242	     15.96868521	     -0.73311550	     -5.78473720	     -9.09111900	      4.58517052	      2.14798581	    -17.70286326	    -11.07466010	     -5.83558481	     23.65228376	     46.40735231	      0.00000000	      0.00000000	     24.71474562	    -15.36160602	     -7.48546157	     66.08452007	     47.27553168	      0.00000000	      0.00000000
     28.83235714	     -3.14173317	     -2.66327522	     -0.57198383	      0.84844849	      0.92860239	      0.45459782	     28.03139935	     -3.32050183	    -12.67768356	     22.85890554	     22.85890554	      3.31288413	     -7.94886145	      4.10871617	     -0.52222437	     -1.23127680	    -12.32709021	     10.05877882	     10.05877882	     16.38735378	     -0.72865156	     -6.00459993	     -9.04045473	      4.50522632	      2.22061654	    -18.03303706	    -11.08890720	     -5.96404669	     23.57758544	     46.42159531	      0.00000000	      0.00000000	     24.87361294	    -15.39086009	     -7.60236443	     66.75087069	     47.29779062	      0.00000000	      0.00000000
